<svg version="1.1" id="Layer_1" xmlns="http://www.w3.org/2000/svg" xmlns:xlink="http://www.w3.org/1999/xlink" x="0px" y="0px"
	 width="100%" viewBox="0 0 512 512" enable-background="new 0 0 512 512" xml:space="preserve">
<path fill="#000000" opacity="1.000000" stroke="none" 
	d="
M403.078186,223.174973 
	C406.022980,232.813492 411.304993,235.388733 423.765717,233.414276 
	C426.514587,232.978699 429.213409,232.243423 432.166901,232.532715 
	C432.089661,233.255737 432.219208,233.885910 431.964050,234.167465 
	C418.755737,248.743454 405.972626,263.854736 386.052216,269.817139 
	C370.260468,274.543793 354.504272,273.360840 338.704590,269.899353 
	C317.711731,265.300079 297.586975,257.691467 276.866150,252.152374 
	C274.793243,251.598267 272.783051,250.771286 269.538116,251.675018 
	C281.310913,259.506989 292.163544,267.384674 302.857147,277.265717 
	C299.023834,277.923431 297.384277,276.292358 295.622498,275.314972 
	C270.712952,261.496063 244.686905,250.260681 216.425674,245.984116 
	C177.733154,240.129013 142.452560,247.699158 114.085304,276.761047 
	C104.330086,286.755157 98.660049,299.175018 95.332939,312.675720 
	C94.917130,314.362976 94.847702,316.241394 92.321411,317.906769 
	C89.767723,305.520294 88.210579,293.647614 89.023338,281.559479 
	C89.833542,269.509186 92.144913,257.689362 96.452583,244.847916 
	C87.518066,247.982712 82.970505,254.694382 76.392632,258.602142 
	C76.527588,252.887329 78.551277,247.980408 80.780853,243.258896 
	C96.338913,210.312057 121.447426,187.273895 154.610138,172.739365 
	C174.954056,163.823029 196.505875,159.954163 218.429520,157.645599 
	C239.086075,155.470459 259.903992,154.052017 279.026886,144.639008 
	C301.768707,133.444641 320.030823,117.911552 328.637878,93.183594 
	C332.667419,81.606926 333.906921,69.853539 328.981750,58.104832 
	C328.760437,57.576893 328.953400,56.875278 329.618073,56.081394 
	C355.060699,83.267700 367.263062,114.534813 358.049377,152.998962 
	C375.882080,148.161987 387.507050,138.229965 393.343292,121.361389 
	C397.416901,133.855133 396.974487,145.996216 393.359650,158.053421 
	C389.620483,170.525345 381.999573,180.088394 369.772308,186.737488 
	C383.443390,197.107498 396.209839,207.270096 403.078186,223.174973 
z"/>
<path fill="#000000" opacity="1.000000" stroke="none" 
	d="
M135.069855,386.905823 
	C129.244629,380.521667 125.091331,373.543030 122.733070,365.599518 
	C121.756332,362.309509 119.927628,360.897675 116.558418,361.348480 
	C115.739960,361.457977 114.894218,361.368835 114.061096,361.362671 
	C102.566284,361.277405 104.326462,362.715515 101.878174,351.180786 
	C100.398331,344.208710 99.605064,337.090820 98.506989,330.037842 
	C97.790833,325.437958 99.953659,323.619202 104.398605,323.667328 
	C111.562805,323.744904 118.731911,323.523376 125.892792,323.691101 
	C129.642960,323.778931 132.444504,322.671387 135.178513,319.948273 
	C161.653748,293.578735 205.438568,301.267029 221.511734,335.031555 
	C222.705612,337.539490 223.761688,339.325256 227.098450,338.011536 
	C238.840500,333.388580 250.506439,333.741241 262.003845,339.015839 
	C262.420868,339.207153 262.955902,339.141266 263.392487,339.190338 
	C264.992920,338.141571 265.266144,336.398010 265.945312,334.920837 
	C281.152863,301.844177 325.824707,293.739624 351.613098,319.519379 
	C354.569977,322.475220 357.484589,323.895447 361.672211,323.736115 
	C368.993286,323.457581 376.334045,323.594879 383.664520,323.699738 
	C388.982941,323.775787 390.467743,325.613647 389.654083,330.889099 
	C388.337189,339.427277 386.798553,347.934479 385.657867,356.495270 
	C385.144196,360.350311 383.231873,361.536469 379.644226,361.360748 
	C376.153778,361.189789 372.644836,361.428589 369.149109,361.321381 
	C366.413666,361.237457 365.051025,362.230957 364.223206,365.031342 
	C357.272125,388.546112 338.276520,403.581879 313.830322,404.014191 
	C289.652954,404.441742 270.904999,389.931763 263.868927,367.688812 
	C263.768982,367.372864 263.742737,367.034332 263.654694,366.713837 
	C259.573059,351.851379 250.651398,346.922546 235.697525,351.163269 
	C229.796844,352.836609 226.163986,355.948486 224.725510,362.500793 
	C219.157715,387.861786 201.318771,403.024200 175.508240,404.016541 
	C159.772003,404.621552 146.242752,398.673981 135.069855,386.905823 
M206.294189,329.220764 
	C194.686798,316.272430 180.136139,311.647919 163.426544,315.481354 
	C136.808990,321.587738 122.478745,349.696655 136.823151,373.026184 
	C145.938049,387.850555 159.505493,395.040192 177.109879,393.987366 
	C193.329010,393.017365 205.305710,385.406342 212.018845,370.557800 
	C218.574890,356.056641 216.234924,342.366730 206.294189,329.220764 
M307.562714,315.139160 
	C283.112885,318.409302 266.886200,342.412292 273.520844,365.494934 
	C279.260681,385.464600 300.350311,397.640259 321.568909,393.234406 
	C341.016052,389.196411 355.126678,373.515503 355.647125,355.363983 
	C356.360291,330.490692 333.249878,310.734253 307.562714,315.139160 
M369.041992,340.578888 
	C372.038940,340.762115 374.869843,340.585876 376.648499,337.042908 
	C372.394836,335.362396 368.560150,334.440643 364.651062,336.977112 
	C365.210938,339.280090 366.813416,339.807831 369.041992,340.578888 
M111.212036,336.753784 
	C111.063332,340.104492 113.678970,340.292999 115.890060,340.562012 
	C118.637924,340.896332 121.103653,340.249359 122.407982,336.933594 
	C118.751541,334.963196 115.266479,335.205536 111.212036,336.753784 
z"/>
<path fill="#000000" opacity="1.000000" stroke="none" 
	d="
M162.369415,367.607788 
	C157.424713,361.811829 155.237610,355.526428 157.324982,348.409912 
	C159.191284,342.047119 163.378540,337.560974 170.210739,336.784058 
	C178.578827,335.832428 186.233368,337.597321 191.130371,345.269653 
	C196.569046,353.790588 195.057510,362.930298 187.461273,369.380798 
	C180.387558,375.387634 170.348434,374.779785 162.369415,367.607788 
M165.063431,350.623352 
	C168.747009,351.150787 171.766220,350.298370 172.691162,346.253052 
	C173.265930,343.739227 172.230392,341.526489 169.721252,340.674286 
	C166.391647,339.543365 163.871048,341.311096 162.160767,343.936157 
	C160.319565,346.762177 161.624695,348.917938 165.063431,350.623352 
z"/>
<path fill="#000000" opacity="1.000000" stroke="none" 
	d="
M320.458435,368.508545 
	C313.172974,374.329773 304.832886,374.990967 298.041473,370.524933 
	C290.827026,365.780548 286.778870,355.652130 289.226135,347.862640 
	C291.527893,340.536469 297.048218,336.656860 304.355896,336.045197 
	C312.129669,335.394501 318.759766,338.457825 323.118744,345.115479 
	C328.332733,353.079071 327.359070,360.930023 320.458435,368.508545 
M293.577362,343.815918 
	C291.897156,346.882538 293.268738,349.032135 295.991364,350.205841 
	C298.873199,351.448181 301.496429,350.514465 303.432709,347.981171 
	C305.105682,345.792358 304.891174,343.658417 302.995514,341.756805 
	C300.690796,339.444916 298.206543,340.062897 295.794647,341.598877 
	C295.113190,342.032867 294.582001,342.702850 293.577362,343.815918 
z"/>
</svg>